<?xml version="1.0" standalone="no"?>
<!DOCTYPE svg PUBLIC "-//W3C//DTD SVG 20010904//EN"
 "http://www.w3.org/TR/2001/REC-SVG-20010904/DTD/svg10.dtd">
<svg version="1.0" xmlns="http://www.w3.org/2000/svg"
 width="514.000000pt" height="514.000000pt" viewBox="0 0 514.000000 514.000000"
 preserveAspectRatio="xMidYMid meet">

<g transform="translate(0.000000,514.000000) scale(0.100000,-0.100000)"
fill="#000000" stroke="none">
<path d="M0 2570 l0 -2570 2570 0 2570 0 0 2570 0 2570 -2570 0 -2570 0 0
-2570z m2907 2475 c672 -94 1269 -447 1670 -985 34 -47 63 -89 63 -95 0 -8
-275 -187 -311 -203 -4 -2 -27 26 -52 61 -223 313 -590 589 -972 732 -436 163
-948 172 -1397 25 -543 -179 -997 -578 -1244 -1095 -146 -306 -207 -575 -208
-915 -1 -573 215 -1092 623 -1501 314 -313 701 -512 1146 -590 105 -18 170
-22 335 -23 219 -1 334 12 527 59 495 120 974 460 1252 888 24 37 46 67 50 67
13 -1 315 -178 318 -187 5 -15 -91 -157 -192 -283 -490 -610 -1241 -954 -2025
-927 -373 13 -689 92 -1015 252 -629 309 -1096 857 -1295 1519 -165 548 -139
1129 74 1660 202 502 561 923 1026 1204 331 200 700 317 1120 356 84 8 403 -4
507 -19z m-36 -775 c326 -55 641 -212 884 -443 102 -96 235 -250 235 -272 0
-5 -71 -55 -157 -109 l-156 -100 -26 35 c-49 65 -186 202 -261 258 -150 115
-319 195 -510 242 -85 21 -117 24 -305 23 -204 0 -213 -1 -329 -32 -244 -66
-422 -168 -605 -345 -489 -476 -543 -1243 -125 -1787 233 -304 595 -497 968
-518 169 -10 284 0 430 37 306 78 584 270 765 528 20 29 40 53 44 53 11 0 316
-171 322 -180 2 -4 -23 -47 -56 -95 -70 -100 -222 -261 -324 -345 -516 -422
-1237 -505 -1835 -212 -479 234 -828 675 -934 1179 -52 249 -57 452 -15 687
83 464 369 890 774 1151 224 145 491 236 770 265 112 11 309 2 446 -20z m-140
-755 c153 -26 288 -85 416 -182 64 -48 193 -177 193 -193 0 -7 -304 -200 -315
-200 -4 0 -34 25 -67 55 -226 210 -580 203 -798 -15 -104 -104 -158 -226 -167
-375 -10 -170 47 -318 171 -441 121 -121 253 -170 432 -162 157 7 272 59 384
171 l57 57 154 -86 c85 -47 158 -90 163 -95 27 -25 -175 -227 -300 -300 -149
-88 -303 -130 -480 -130 -274 -1 -492 88 -685 280 -125 125 -202 261 -255 451
-28 99 -25 356 4 465 85 312 319 562 623 666 143 48 317 61 470 34z"/>
</g>
</svg>
