<?xml version="1.0" standalone="no"?><svg xmlns="http://www.w3.org/2000/svg" viewBox="0 0 1440 320"><path fill="#ff6ed8" fill-opacity="1" d="M0,224L34.3,234.7C68.6,245,137,267,206,256C274.3,245,343,203,411,165.3C480,128,549,96,617,117.3C685.7,139,754,213,823,240C891.4,267,960,245,1029,202.7C1097.1,160,1166,96,1234,80C1302.9,64,1371,96,1406,112L1440,128L1440,320L1405.7,320C1371.4,320,1303,320,1234,320C1165.7,320,1097,320,1029,320C960,320,891,320,823,320C754.3,320,686,320,617,320C548.6,320,480,320,411,320C342.9,320,274,320,206,320C137.1,320,69,320,34,320L0,320Z"></path></svg>